<?xml version="1.0"?>
<svg xmlns="http://www.w3.org/2000/svg" xmlns:xlink="http://www.w3.org/1999/xlink" xmlns:svgjs="http://svgjs.com/svgjs" version="1.1" width="512" height="512" x="0" y="0" viewBox="0 0 512 512" style="enable-background:new 0 0 512 512" xml:space="preserve" class=""><g>
  <g xmlns="http://www.w3.org/2000/svg">
    <g fill="#231F20">
      <path d="m450.9,73.5h-118.4v-52.1c0-5.8-4.7-10.4-10.4-10.4h-132.2c-5.8,0-10.4,4.7-10.4,10.4v52.1h-118.4c-5.8,0-10.4,4.7-10.4,10.4v64.9c0,5.8 4.7,10.4 10.4,10.4h24.6v264.7c0,42.5 34.6,77.1 77.1,77.1h186.4c42.5,0 77.1-34.6 77.1-77.1v-264.6h24.6c5.8,0 10.4-4.7 10.4-10.4v-65c-5.68434e-14-5.7-4.7-10.4-10.4-10.4zm-250.5-41.6h111.3v41.7h-111.3v-41.7zm205,392c0,31-25.2,56.2-56.2,56.2h-186.4c-31,0-56.2-25.2-56.2-56.2v-264.6h298.8v264.6zm35-285.5h-368.8v-44h368.9v44z" fill="#1b4252" data-original="#231f20" style="" class=""/>
      <path d="m164.1,427c5.8,0 10.4-4.7 10.4-10.4v-193.7c0-5.8-4.7-10.4-10.4-10.4-5.8,0-10.4,4.7-10.4,10.4v193.7c0,5.7 4.7,10.4 10.4,10.4z" fill="#1b4252" data-original="#231f20" style="" class=""/>
      <path d="M256,427c5.8,0,10.4-4.7,10.4-10.4V222.9c0-5.8-4.7-10.4-10.4-10.4s-10.4,4.7-10.4,10.4v193.7    C245.6,422.3,250.2,427,256,427z" fill="#1b4252" data-original="#231f20" style="" class=""/>
      <path d="m347.9,427c5.8,0 10.4-4.7 10.4-10.4v-193.7c0-5.8-4.7-10.4-10.4-10.4-5.8,0-10.4,4.7-10.4,10.4v193.7c-0.1,5.7 4.6,10.4 10.4,10.4z" fill="#1b4252" data-original="#231f20" style="" class=""/>
    </g>
  </g>
</g></svg>
